# xmcd
#
# Track frame offsets: 
#        150
#        19442
#        32787
#        44812
#        61619
#        74778
#        93586
#        109641
#        123483
#        133408
#        146350
#        161590
#        177883
#        190820
#        204039
#        217678
#        228857
#        239571
#        258679
#        276488
#        292275
#        308122
#
# Disc length: 4303 seconds
#
# Revision: 2
# Processed by: cddbd v1.5.2PL0 Copyright (c) Steve Scherf et al.
# Submitted via: ExactAudioCopy v0.99pb3
#
DISCID=5910cd16
DTITLE=Tom T. Hall - We All Got Together and... - The Storyteller [CD]
DYEAR=1972
DGENRE=Country
TTITLE0=Turn It On, Turn It On, Turn It On [from We All Got Together a
TTITLE0=nd..., '72]
TTITLE1=Souvenirs [from We All Got Together and..., '72]
TTITLE2=Pamela Brown [from We All Got Together and..., '72]
TTITLE3=Bourbon Man [from We All Got Together and..., '72]
TTITLE4=The Promise and the Dream [from We All Got Together and..., '7
TTITLE4=2]
TTITLE5=She Gave Her Heart to Jethro [from We All Got Together and...,
TTITLE5='72]
TTITLE6=Coot Marseilles Blues [from We All Got Together and..., '72]
TTITLE7=The Monkey That Became President [from We All Got Together and
TTITLE7=, '72]
TTITLE8=Pratt Street [from We All Got Together and..., '72]
TTITLE9=High Steppin' Proud [from We All Got Together and..., '72]
TTITLE10=Me and Jesus [from We All Got Together and..., '72]
TTITLE11=More About John Henry [from The Storyteller, '72]
TTITLE12=When Nobody Wants Your Body Anymore [from The Storyteller, '7
TTITLE12=2]
TTITLE13=Windy City Anne [from The Storyteller, '72]
TTITLE14=The Story of Your Life Is in Your Face [from The Storyteller,
TTITLE14='72]
TTITLE15=Willy the Wandering Gypsy and Me [from The Storyteller, '72]
TTITLE16=St. Louis Named a Shoe After Me [from The Storyteller, '72]
TTITLE17=Old Dogs, Children and Watermelon Wine [from The Storyteller,
TTITLE17='72]
TTITLE18=The Rolling Mills of Middletown [from The Storyteller, '72]
TTITLE19=Grandma Whistled [from The Storyteller, '72]
TTITLE20=A Piece of the Road [from The Storyteller, '72]
TTITLE21=One More Song for Jesus [from The Storyteller, '72]
EXTD=
EXTT0=
EXTT1=
EXTT2=
EXTT3=
EXTT4=
EXTT5=
EXTT6=
EXTT7=
EXTT8=
EXTT9=
EXTT10=
EXTT11=
EXTT12=
EXTT13=
EXTT14=
EXTT15=
EXTT16=
EXTT17=
EXTT18=
EXTT19=
EXTT20=
EXTT21=
PLAYORDER=
